<svg width="325" height="325" viewBox="0 0 325 325" fill="none" xmlns="http://www.w3.org/2000/svg">
<g clip-path="url(#clip0_52_127)">
<path d="M246.961 255.086C245.866 256.181 244.38 256.796 242.832 256.796C241.283 256.796 239.797 256.181 238.702 255.086L234.457 250.841C198.54 283.058 146.039 286.304 114.82 255.086C114.82 255.086 110.691 250.956 114.82 246.827C116.051 245.596 118.925 245.117 118.925 245.117H118.991L119.387 245.101C122.037 244.914 124.662 244.469 127.225 243.771C133.443 242.147 139.13 238.931 143.726 234.439C148.995 229.17 151.696 222.951 153.059 217.938C153.756 215.375 154.202 212.75 154.388 210.1L154.405 209.704V209.654C154.405 209.654 154.884 206.764 156.114 205.533C157.345 204.302 160.219 203.823 160.219 203.823H160.285L160.681 203.807C163.331 203.621 165.956 203.175 168.519 202.477C172.813 201.328 176.875 199.445 180.527 196.911L131.338 147.721L135.467 143.592L131.338 147.721L131.016 147.399L130.372 146.673C127.428 143.286 125.173 139.359 123.732 135.11C122.228 130.75 121.895 126.071 122.765 121.541C123.814 116.412 126.49 111.275 131.338 106.428C136.186 101.58 141.323 98.8872 146.451 97.8549C150.981 96.9832 155.66 97.3164 160.021 98.8212C164.578 100.37 168.761 102.854 172.301 106.114L172.508 106.32L172.591 106.386L172.615 106.411C172.615 106.411 172.632 106.428 168.502 110.557L172.632 106.428L176.761 110.557C177.856 111.652 178.472 113.137 178.472 114.686C178.472 116.235 177.856 117.721 176.761 118.816C175.666 119.911 174.181 120.526 172.632 120.526C171.083 120.526 169.598 119.911 168.502 118.816L164.323 114.637L163.935 114.298C161.707 112.359 159.124 110.87 156.329 109.913C153.967 109.12 151.398 108.781 148.747 109.318C146.129 109.838 143.008 111.275 139.597 114.686C136.186 118.097 134.749 121.219 134.228 123.837C133.692 126.488 134.03 129.057 134.815 131.427C135.83 134.384 137.44 137.103 139.547 139.413L188.786 188.652C191.32 185 193.203 180.938 194.352 176.644C195.082 173.952 195.533 171.193 195.699 168.41V168.344C195.699 168.344 196.169 165.478 197.408 164.239C198.639 163.008 201.513 162.529 201.513 162.529H201.579C204.362 162.364 207.122 161.913 209.813 161.183C216.031 159.559 221.718 156.343 226.314 151.851C231.583 146.582 234.275 140.371 235.646 135.35C236.376 132.659 236.827 129.899 236.993 127.116L236.993 127.05C236.993 127.05 237.463 124.184 238.702 122.945C242.832 118.816 246.961 122.945 246.961 122.945C278.179 154.163 274.933 206.664 242.716 242.582L246.961 246.827C248.056 247.922 248.671 249.407 248.671 250.956C248.671 252.505 248.056 253.99 246.961 255.086V255.086ZM241.18 225.8C260.447 198.273 262.091 164.289 246.3 140.503C244.02 147.885 239.998 154.609 234.573 160.11C227.916 166.766 220.285 170.268 214.149 172.093C220.589 178.82 226.175 186.315 230.782 194.408C235.952 203.576 240.073 214.271 241.18 225.8V225.8ZM205.543 180.005C203.364 188.074 199.139 195.444 193.279 201.404C187.32 207.264 179.949 211.488 171.88 213.668C177.939 219.501 184.7 224.559 192.007 228.724C203.255 235.066 216.172 239.13 229.477 237.602C231.013 224.305 226.95 211.388 220.615 200.148C216.448 192.838 211.388 186.074 205.551 180.013L205.543 180.005ZM217.684 249.296C206.154 248.19 195.451 244.077 186.284 238.907C177.48 233.951 169.865 227.906 163.968 222.274C161.728 229.969 157.61 236.988 151.985 242.697C145.626 249.057 138.358 252.525 132.378 254.425C156.164 270.216 190.157 268.581 217.675 249.305L217.684 249.296Z" fill="#1E6170"/>
</g>
<defs>
<clipPath id="clip0_52_127">
<rect width="186.875" height="186.875" fill="white" transform="translate(304.906 180.89) rotate(135)"/>
</clipPath>
</defs>
</svg>
